PathFileType	4	(X/Y/Z)	Patient4_TMGait_0pt4_01_left_34.trc.trc
DataRate	CameraRate	NumFrames	NumMarkers	Units	OrigDataRate	OrigDataStartFrame	OrigNumFrames
76.502732240437	76.502732240437	4	33	mm	76.502732240437	18	       141
Frame#	Time	Sacral			L.Shoulder			Chest			R.Shoulder			Neck			R.ASIS			L.ASIS			R.Thigh.Superior			R.Thigh.Lateral			R.Thigh.Inferior			R.Patella			L.Thigh.Superior			L.Thigh.Lateral			L.Thigh.Inferior			L.Patella			L.Shank.Superior			L.Shank.Lateral			L.Shank.Inferior			R.Shank.Superior			R.Shank.Lateral			R.Shank.Inferior			R.Heel			R.Midfoot.Superior			R.Midfoot.Lateral			R.Toe			L.Heel			L.Midfoot.Lateral			L.Midfoot.Superior			L.Toe			L.Elbow			L.Wrist			R.Elbow			R.Wrist			
		X1	Y1	Z1	X2	Y2	Z2	X3	Y3	Z3	X4	Y4	Z4	X5	Y5	Z5	X6	Y6	Z6	X7	Y7	Z7	X8	Y8	Z8	X9	Y9	Z9	X10	Y10	Z10	X11	Y11	Z11	X12	Y12	Z12	X13	Y13	Z13	X14	Y14	Z14	X15	Y15	Z15	X16	Y16	Z16	X17	Y17	Z17	X18	Y18	Z18	X19	Y19	Z19	X20	Y20	Z20	X21	Y21	Z21	X22	Y22	Z22	X23	Y23	Z23	X24	Y24	Z24	X25	Y25	Z25	X26	Y26	Z26	X27	Y27	Z27	X28	Y28	Z28	X29	Y29	Z29	X30	Y30	Z30	X31	Y31	Z31	X32	Y32	Z32	X33	Y33	Z33	

18	42.382214285714	815.769451926171	1004.821933749422	565.815532227147	968.799707913666	1433.856618583062	368.352128415687	1090.902904429692	1367.150937166514	516.073960166478	1028.214477513966	1439.152400456386	699.517258461241	968.785103614366	1495.118497578371	526.808913802572	1054.963988739945	939.997104603068	655.347934396285	1011.380268883559	966.210783429323	383.513460289648	1063.497060320575	730.825404913402	621.288775824089	970.690990164340	630.140677383721	688.624844001604	1029.889324943180	570.345606010381	603.551214316816	1016.159919588709	485.404771389771	608.850317630075	1084.658717977215	775.589330141706	404.062295383537	1029.974938687178	649.667698274883	327.778189217684	1132.706448543275	586.240516384198	385.443962879516	1158.507914551773	524.652785679933	381.397749299070	1143.705281741707	454.201013889895	370.522910420189	1081.385007165688	324.325939943929	315.546344687723	1170.449126690895	226.089480569008	369.528927399666	981.774342577622	398.452013764620	615.633424215260	905.241253010628	299.909139116381	680.590714930578	934.555572298890	203.538166579307	612.049337732071	788.286151185002	43.529305789156	586.233126531176	961.482536803303	96.688226425553	614.101397995072	875.131477554573	36.673968614270	656.980026109148	1082.608295105701	42.204625955372	635.464890792731	1090.032390930942	44.610725695561	402.902231474734	1166.869959636136	49.947927149468	326.007070439823	1234.553332745254	130.218542960404	348.090081797720	1369.794311207686	104.464871262282	327.656034589129	882.084346808764	1089.411753234697	262.698727836471	929.789272762895	831.917079199791	241.416647910306	1067.127355294565	1097.986231193636	830.460748633303	1288.487606402734	979.933081510939	773.908761843647	
19	42.395285714286	816.529308599136	1004.180534036020	564.478227906406	968.300217177726	1433.516603031699	367.256150984100	1090.742529232935	1366.893168799656	514.753920602007	1028.097677788031	1438.566622535460	698.336903892203	968.437148280639	1494.589985294061	525.776307332272	1055.727858464731	939.500966248127	654.028585666830	1012.288807114807	965.545425434353	382.093969145457	1062.945562336331	729.925298711775	620.557606948423	969.218499368087	629.759677005629	687.807305747109	1028.205862367898	569.434610630703	602.995661144468	1013.823896938857	484.446768068618	608.192049885947	1086.134545858322	775.288603492711	403.144995413679	1030.761764086596	648.319083374694	328.364273382961	1133.749575203150	585.319324887146	385.331287395025	1159.026559347705	522.868439789234	381.810137867160	1143.195287127809	451.894742351111	371.757186313657	1078.572960969276	322.814453731088	317.807849384628	1165.938566184179	223.471147981586	372.196161501572	978.823513731935	397.826294030655	615.081377552603	901.649483328746	299.903625359752	680.265188538064	930.199086604831	203.227947859335	611.779178241062	783.032511341386	43.572918516941	586.246275776272	956.287009977130	96.626932096634	614.075451424714	869.867113884769	36.649544128406	656.981276730191	1077.333650503840	42.037951934639	635.506488970893	1082.595995523645	43.761501329262	406.454013594727	1159.058870157144	48.034287770884	329.140493023001	1228.256862789973	126.790019332972	351.137691941400	1362.809946646484	98.639454768000	329.870975946830	881.280043527093	1089.398493973347	261.364636038292	926.582063604674	831.329646359984	242.094693304349	1069.072838196621	1096.841509365760	827.011995977021	1293.513450710814	987.036299446068	767.666710692665	
20	42.408357142857	817.444683341908	1003.395731204776	562.830463664191	967.888661021090	1433.066696194109	365.944102071665	1090.586641922518	1366.604654469488	513.316288353273	1027.809457592854	1437.902510221876	696.989191576087	968.056023738728	1493.965325847863	524.545153780643	1056.582809371449	938.934543594054	652.687451219130	1013.543255843485	964.699177194872	380.623264068069	1062.527323240443	728.937429475208	619.875062151688	967.785676522124	629.330258806433	686.947139155687	1026.591245306371	568.452222961949	602.421833500737	1011.528903530371	483.422891590119	607.488919068214	1087.814622731423	774.630157848150	402.288354962367	1031.642003292258	646.780597329270	328.881801267921	1134.752732228131	584.112802136522	385.341187780514	1159.348707279206	520.658865294263	382.335677374745	1142.360159578936	449.156866120134	373.014629126849	1075.095081265720	321.039658118842	320.082480703894	1160.510352568275	220.368057079198	374.887542332858	975.912041476717	397.148440505218	614.489953367616	898.073308596021	299.869310971532	679.907751254690	925.837990831584	202.882379824798	611.489021710241	777.775918517617	43.591332658200	586.257391674863	951.070139600134	96.556180758388	614.035509968380	864.595250835582	36.611133056704	656.979380790340	1072.054925365278	41.896473589665	635.550423271154	1073.735293393411	42.747825903135	409.886877165323	1149.868243923863	45.872736329135	332.181887721858	1220.836657849281	122.747463740677	354.304822410697	1354.615364956170	91.752433801022	332.202655824589	880.574047054946	1089.290307259105	259.750898251350	924.087827220482	830.764592832612	242.644974279660	1071.094964143235	1095.724481538715	823.507647354786	1298.281763156228	994.150964822659	761.553686916637	
21	42.421428571429	818.496404740355	1002.488938242155	560.883338534575	967.609263270220	1432.512671952413	364.406292207073	1090.454758144980	1366.291711767273	511.768469033750	1027.354460048534	1437.177993143142	695.473946865173	967.662807675395	1493.260954335494	523.103588504445	1057.524110625393	938.300460009209	651.329736164460	1015.114870297677	963.708720403219	379.115311902319	1062.282131619126	727.873206928743	619.197151481050	966.458657550206	628.845459467825	686.008324039779	1025.095397914612	567.404365814621	601.779819880530	1009.337014123916	482.327540375097	606.696927203024	1089.604821262663	773.576416099097	401.497593539049	1032.511269567169	645.087642996937	329.287487156016	1135.609849965987	582.639928358512	385.471411957127	1159.369570303236	518.114958629135	382.981421399187	1141.203982299501	446.120994048719	374.239438036612	1071.175714812894	319.062321877163	322.265476910181	1154.516323034559	216.972690011390	377.499623418613	973.085023638153	396.413408518852	613.823692171449	894.557148795784	299.814139605218	679.496848648322	921.493961848581	202.504826488543	611.162435367852	772.521102920905	43.604047591429	586.267691133137	945.839430696544	96.481445904970	613.980005157364	859.320036355202	36.570431136339	656.970460036418	1066.779110607053	41.768445933881	635.596780786521	1064.044495188315	41.662459116096	413.049214867769	1139.923682375709	43.644947588086	335.016559410519	1212.788426109751	118.364627365258	357.500304287154	1345.752352091762	84.265976554098	334.634210378254	879.972608744412	1089.083814966253	257.891810133765	922.226205101700	830.199159407589	243.033058269836	1073.203443876065	1094.655856852653	819.966631695610	1302.791681306888	1001.178571715584	755.616315875572	
